<?xml version="1.0" encoding="UTF-8" standalone="no"?>
<!DOCTYPE svg PUBLIC "-//W3C//DTD SVG 1.1//EN" "http://www.w3.org/Graphics/SVG/1.1/DTD/svg11.dtd">
<svg width="100%" height="100%" viewBox="0 0 2875 1285" version="1.1" xmlns="http://www.w3.org/2000/svg" xmlns:xlink="http://www.w3.org/1999/xlink" xml:space="preserve" xmlns:serif="http://www.serif.com/" style="fill-rule:evenodd;clip-rule:evenodd;stroke-linecap:round;stroke-linejoin:round;stroke-miterlimit:1.5;">
    <g transform="matrix(2.06866,0,0,2.06866,-3288.63,-401.885)">
        <g>
            <g transform="matrix(1.20262,0.0107576,-0.01395,1.55951,132.109,-2987.94)">
                <path d="M1496.03,2030.36C1638.37,2030.36 1753.94,2119.48 1753.94,2229.25C1753.94,2339.02 1638.37,2428.14 1496.03,2428.14C1353.68,2428.14 1238.12,2339.02 1238.12,2229.25C1238.12,2119.48 1353.68,2030.36 1496.03,2030.36ZM1496.03,2055.22C1371.48,2055.22 1270.36,2133.2 1270.36,2229.25C1270.36,2325.3 1371.48,2403.28 1496.03,2403.28C1620.58,2403.28 1721.7,2325.3 1721.7,2229.25C1721.7,2133.2 1620.58,2055.22 1496.03,2055.22Z" style="fill:white;stroke:white;stroke-width:0.35px;"/>
            </g>
            <g>
                <g transform="matrix(0.457311,0,0,0.478436,1382.45,-382.414)">
                    <path d="M2002.11,1790.16L2070.88,1790.16L2070.88,1536.58L2072.46,1536.58L2230.48,1790.16L2306.08,1790.16L2306.08,1422.66L2236.78,1422.66L2236.78,1680.43L2235.21,1680.43L2074.56,1422.66L2002.11,1422.66L2002.11,1790.16Z" style="fill:white;fill-rule:nonzero;"/>
                </g>
                <g transform="matrix(0.457311,0,0,0.478436,1382.45,-382.414)">
                    <path d="M2484.58,1795.41C2552.83,1795.41 2620.03,1752.36 2620.03,1653.66C2620.03,1554.96 2552.83,1511.91 2484.58,1511.91C2415.81,1511.91 2349.13,1554.96 2349.13,1653.66C2349.13,1752.36 2415.81,1795.41 2484.58,1795.41ZM2484.58,1739.23C2444.68,1739.23 2412.13,1712.98 2412.13,1653.66C2412.13,1594.33 2444.68,1568.08 2484.58,1568.08C2523.96,1568.08 2556.51,1594.33 2556.51,1653.66C2556.51,1712.98 2523.96,1739.23 2484.58,1739.23Z" style="fill:white;fill-rule:nonzero;"/>
                </g>
                <g transform="matrix(0.457311,0,0,0.478436,1382.45,-382.414)">
                    <path d="M2782.26,1511.91C2701.93,1511.91 2665.71,1541.31 2665.71,1594.33L2665.71,1604.83L2729.23,1603.78L2729.23,1600.63C2729.23,1570.71 2751.28,1561.78 2779.63,1561.78C2808.51,1561.78 2827.93,1570.71 2827.93,1604.83L2827.93,1610.61C2827.93,1626.36 2822.16,1632.66 2796.96,1635.81L2743.41,1643.16C2695.11,1649.46 2649.96,1664.68 2649.96,1720.33C2649.96,1773.88 2691.96,1795.41 2737.63,1795.41C2799.06,1795.41 2824.78,1756.56 2828.46,1741.86L2831.08,1741.86L2831.08,1790.16L2895.13,1790.16L2895.13,1601.68C2895.13,1540.78 2862.06,1511.91 2782.26,1511.91ZM2827.93,1696.18C2827.93,1715.08 2807.46,1746.06 2761.26,1746.06C2728.71,1746.06 2716.11,1730.83 2716.11,1711.93C2716.11,1691.98 2731.33,1682.53 2759.68,1677.81L2798.53,1672.56C2814.81,1669.93 2824.78,1667.83 2827.93,1662.06L2827.93,1696.18Z" style="fill:white;fill-rule:nonzero;"/>
                </g>
                <g transform="matrix(0.550637,0,0,0.550637,1104.45,-509.542)">
                    <path d="M2979.66,1795.41C2999.08,1795.41 3014.83,1780.18 3014.83,1760.76C3014.83,1741.86 2999.08,1726.11 2979.66,1726.11C2960.76,1726.11 2945.01,1741.86 2945.01,1760.76C2945.01,1780.18 2960.76,1795.41 2979.66,1795.41Z" style="fill:rgb(255,136,0);fill-rule:nonzero;stroke:rgb(255,136,0);stroke-width:0.88px;stroke-linecap:butt;stroke-miterlimit:2;"/>
                </g>
            </g>
            <g transform="matrix(0.792253,0,0,0.81355,193.572,-802.198)">
                <path d="M2002.11,1790.16L2070.88,1790.16L2070.88,1536.58L2072.46,1536.58L2230.48,1790.16L2306.08,1790.16L2306.08,1422.66L2236.78,1422.66L2236.78,1680.43L2235.21,1680.43L2074.56,1422.66L2002.11,1422.66L2002.11,1790.16Z" style="fill:white;fill-rule:nonzero;"/>
            </g>
            <g transform="matrix(0.429262,0,0,0.429262,982.394,-84.0025)">
                <g>
                    <clipPath id="_clip1">
                        <path d="M3090.94,1696.4L3130.21,1696.4L3172.58,1563.44L3214.6,1696.4L3253.87,1696.4L3304.16,1517.28L3270.75,1517.28L3233.2,1661.61L3231.83,1661.61L3187.74,1517.28L3157.42,1517.28L3113.33,1661.61L3111.95,1661.61L3074.41,1517.28L3040.99,1517.28L3090.94,1696.4Z"/>
                    </clipPath>
                    <g clip-path="url(#_clip1)">
                        <g id="_Image2_" serif:id="_Image2" transform="matrix(1.12613,0,0,1.12613,3041,1517.29)">
                            <rect x="0" y="0" width="234" height="160" style="fill:white;"/>
                        </g>
                    </g>
                </g>
                <g>
                    <clipPath id="_clip2">
                        <path d="M3489.14,1604.09C3489.14,1541.4 3453.66,1513.84 3407.5,1513.84C3361.34,1513.84 3322.08,1541.74 3322.08,1607.53C3322.08,1672.29 3360.66,1700.54 3409.22,1700.54C3445.74,1700.54 3476.05,1684 3486.73,1644.39L3455.73,1644.39C3448.15,1665.4 3432.3,1673.33 3410.26,1673.33C3377.19,1673.33 3357.9,1655.76 3355.49,1617.18L3488.11,1617.18C3488.8,1613.39 3489.14,1610.29 3489.14,1604.09ZM3355.49,1592.38C3358.93,1557.93 3378.22,1541.05 3407.16,1541.05C3438.16,1541.05 3455.38,1560.69 3456.07,1592.38L3355.49,1592.38Z"/>
                    </clipPath>
                    <g clip-path="url(#_clip2)">
                        <g id="_Image4_" serif:id="_Image4" transform="matrix(1.12613,0,0,1.12613,3322.09,1513.84)">
                            <rect x="0" y="0" width="149" height="166" style="fill:white;"/>
                        </g>
                    </g>
                </g>
                <g>
                    <clipPath id="_clip3">
                        <path d="M3613.83,1513.84C3587.31,1513.84 3564.58,1525.9 3553.9,1545.53L3553.9,1455.28L3519.11,1455.28L3519.11,1696.4L3553.9,1696.4L3553.9,1668.16C3564.58,1687.79 3587.31,1699.85 3613.83,1699.85C3653.79,1699.85 3693.75,1671.6 3693.75,1606.85C3693.75,1541.74 3653.79,1513.84 3613.83,1513.84ZM3606.6,1670.57C3579.04,1670.57 3552.18,1650.59 3552.18,1606.85C3552.18,1563.1 3579.04,1543.12 3606.6,1543.12C3634.5,1543.12 3660.68,1563.1 3660.68,1606.85C3660.68,1650.59 3634.5,1670.57 3606.6,1670.57Z"/>
                    </clipPath>
                    <g clip-path="url(#_clip3)">
                        <g id="_Image6_" serif:id="_Image6" transform="matrix(1.12613,0,0,1.12613,3519.11,1455.28)">
                            <rect x="0" y="0" width="156" height="218" style="fill:white;"/>
                        </g>
                    </g>
                </g>
                <g>
                    <clipPath id="_clip4">
                        <path d="M3788.13,1699.85C3827.4,1699.85 3863.22,1684.69 3863.22,1645.08C3863.22,1614.42 3841.52,1602.71 3812.59,1595.82L3778.83,1588.24C3760.58,1584.11 3752.31,1576.19 3752.31,1564.13C3752.31,1548.98 3766.09,1540.36 3788.48,1540.36C3809.83,1540.36 3824.64,1547.94 3828.09,1569.99L3857.37,1569.99C3855.65,1533.13 3829.47,1513.84 3787.79,1513.84C3746.45,1513.84 3718.89,1532.1 3718.89,1564.82C3718.89,1588.93 3733.71,1606.16 3767.47,1614.08L3800.88,1621.66C3817.76,1625.79 3827.75,1631.3 3827.75,1645.77C3827.75,1665.06 3810.52,1673.33 3788.48,1673.33C3766.43,1673.33 3747.49,1665.06 3744.73,1643.01L3713.38,1643.01C3714.42,1681.59 3745.08,1699.85 3788.13,1699.85Z"/>
                    </clipPath>
                    <g clip-path="url(#_clip4)">
                        <g id="_Image8_" serif:id="_Image8" transform="matrix(1.12613,0,0,1.12613,3713.39,1513.84)">
                            <rect x="0" y="0" width="134" height="166" style="fill:white;"/>
                        </g>
                    </g>
                </g>
                <g>
                    <clipPath id="_clip5">
                        <path d="M3967.94,1670.57C3950.03,1670.57 3943.49,1662.65 3943.49,1645.08L3943.49,1544.5L3978.97,1544.5L3978.97,1517.28L3943.49,1517.28L3943.49,1472.16L3908.69,1472.16L3908.69,1517.28L3879.41,1517.28L3879.41,1544.5L3908.69,1544.5L3908.69,1650.94C3908.69,1686.07 3929.71,1698.82 3958.99,1698.82C3966.56,1698.82 3973.8,1698.82 3981.38,1697.78L3981.38,1670.57L3967.94,1670.57Z"/>
                    </clipPath>
                    <g clip-path="url(#_clip5)">
                        <g id="_Image10_" serif:id="_Image10" transform="matrix(1.12613,0,0,1.12613,3879.42,1472.16)">
                            <rect x="0" y="0" width="91" height="202" style="fill:white;"/>
                        </g>
                    </g>
                </g>
                <g>
                    <clipPath id="_clip6">
                        <path d="M4134.32,1517.28L4134.32,1620.97C4134.32,1653 4114.68,1670.57 4086.44,1670.57C4058.19,1670.57 4044.41,1653 4044.41,1620.97L4044.41,1517.28L4009.62,1517.28L4009.62,1628.89C4009.62,1679.53 4037.87,1699.85 4073,1699.85C4112.96,1699.85 4130.18,1674.02 4133.28,1660.58L4134.32,1660.58L4134.32,1696.4L4169.11,1696.4L4169.11,1517.28L4134.32,1517.28Z"/>
                    </clipPath>
                    <g clip-path="url(#_clip6)">
                        <g id="_Image12_" serif:id="_Image12" transform="matrix(1.12613,0,0,1.12613,4009.63,1517.29)">
                            <rect x="0" y="0" width="142" height="163" style="fill:white;"/>
                        </g>
                    </g>
                </g>
                <g>
                    <clipPath id="_clip7">
                        <path d="M4338.93,1455.28L4338.93,1545.53C4328.25,1525.9 4305.17,1513.84 4278.99,1513.84C4238.69,1513.84 4199.08,1541.74 4199.08,1606.85C4199.08,1671.6 4238.69,1699.85 4278.99,1699.85C4305.17,1699.85 4328.25,1687.79 4338.93,1668.16L4338.93,1696.4L4373.72,1696.4L4373.72,1455.28L4338.93,1455.28ZM4286.23,1670.57C4258.32,1670.57 4231.8,1650.59 4231.8,1606.85C4231.8,1563.1 4258.32,1543.12 4286.23,1543.12C4313.78,1543.12 4340.65,1563.1 4340.65,1606.85C4340.65,1650.59 4313.78,1670.57 4286.23,1670.57Z"/>
                    </clipPath>
                    <g clip-path="url(#_clip7)">
                        <g id="_Image14_" serif:id="_Image14" transform="matrix(1.12613,0,0,1.12613,4199.08,1455.28)">
                            <rect x="0" y="0" width="156" height="218" style="fill:white;"/>
                        </g>
                    </g>
                </g>
                <g>
                    <clipPath id="_clip8">
                        <path d="M4429.52,1486.28C4440.54,1486.28 4450.19,1477.33 4450.19,1465.96C4450.19,1454.59 4440.54,1445.64 4429.52,1445.64C4418.5,1445.64 4408.85,1454.59 4408.85,1465.96C4408.85,1477.33 4418.5,1486.28 4429.52,1486.28ZM4412.3,1696.4L4447.09,1696.4L4447.09,1517.28L4412.3,1517.28L4412.3,1696.4Z"/>
                    </clipPath>
                    <g clip-path="url(#_clip8)">
                        <g transform="matrix(1.12613,0,0,1.12613,4408.86,1445.64)">
                            <rect x="0" y="0" width="37" height="223" style="fill:white;"/>
                        </g>
                    </g>
                </g>
                <g>
                    <clipPath id="_clip9">
                        <path d="M4564.21,1699.85C4608.99,1699.85 4651.7,1670.91 4651.7,1606.85C4651.7,1542.78 4608.99,1513.84 4564.21,1513.84C4519.77,1513.84 4477.06,1542.78 4477.06,1606.85C4477.06,1670.91 4519.77,1699.85 4564.21,1699.85ZM4564.21,1670.57C4535.27,1670.57 4510.13,1650.94 4510.13,1606.85C4510.13,1562.75 4535.27,1543.12 4564.21,1543.12C4593.14,1543.12 4618.63,1562.75 4618.63,1606.85C4618.63,1650.94 4593.14,1670.57 4564.21,1670.57Z"/>
                    </clipPath>
                    <g clip-path="url(#_clip9)">
                        <g id="_Image18_" serif:id="_Image18" transform="matrix(1.12613,0,0,1.12613,4477.07,1513.84)">
                            <rect x="0" y="0" width="156" height="166" style="fill:white;"/>
                        </g>
                    </g>
                </g>
            </g>
        </g>
    </g>
</svg>
